# xmcd
#
# Track frame offsets:
#	150
#	13625
#	26312
#	51812
#	71787
#	83212
#	98150
#	120037
#	129050
#	156112
#	177925
#	199925
#
# Disc length: 2809 seconds
#
# Revision: 1
# Processed by: cddbd v1.5.2PL0 Copyright (c) Steve Scherf et al.
# Submitted via: audiograbber 1.80
#
DISCID=8c0af70c
DTITLE=Ron Spielmann - Skin and Wire
DYEAR=1991
DGENRE=Blues
TTITLE0=I say You
TTITLE1=I can't
TTITLE2=The Doctor
TTITLE3=How does it feel
TTITLE4=Back again
TTITLE5=Lost in Memories
TTITLE6=When the Needles change
TTITLE7=I can't smell myself
TTITLE8=His Blues
TTITLE9=Need Nobody
TTITLE10=Satisfactory
TTITLE11=Brothers and Sisters
EXTD=P and C by Ron Spielmann and Rudi Benedikt\n\nGuitar and Vocals - Ron Spielmann
EXTD=\nBass - Locko Richter - Oliver Reinhardt\nDrums - Lutz Oldemeier - Chris 
EXTD=Weiss\nBackupvocals - Eva Gruber, Elke Neugebauer, Clarissa Wimmer\nTrumpe
EXTD=t - Martin Klingenberg\nTrombone - Jürgen Hahn\nSaxophone - Christian Schm
EXTD=elzer\nSopransax - George Pfister\nViolin - Michael Christoff Schmitt\nGra
EXTD=nd Piano - Thomas Sachs\n\nHorns arranged by Ron Spielmann and Jürgen Hahn\n
EXTD=\nAll songs written by Ron Spielmann\n\nRecorded and Mixed at Power Sound St
EXTD=udio Uehlfeld Germany\nby Rudi Benedikt and Ron Spielmann
EXTT0=
EXTT1=
EXTT2=
EXTT3=
EXTT4=
EXTT5=
EXTT6=
EXTT7=
EXTT8=
EXTT9=
EXTT10=
EXTT11=
PLAYORDER=
